<svg width="1000" height="200" viewBox="0 0 1000 200" fill="none" xmlns="http://www.w3.org/2000/svg">
<path d="M246.5 118V61.36H249.38V118H246.5ZM255.14 118V61.36H260.9V118H255.14ZM263.78 118V61.36H272.42V118H263.78ZM255.908 136.24H268.772V138.64H255.908V136.24ZM278.188 118V61.36H281.068V118H278.188ZM283.948 118V61.36H289.708V118H283.948ZM298.348 118V61.36H301.228V118H298.348ZM287.02 126.352H292.204C294.06 126.352 295.5 126.608 296.524 127.12C297.612 127.632 298.54 128.4 299.308 129.424C300.78 131.344 301.516 134.064 301.516 137.584C301.388 141.232 300.556 143.984 299.02 145.84C297.484 147.76 295.084 148.688 291.82 148.624H287.02V126.352ZM291.628 146.704C296.556 146.704 299.02 143.728 299.02 137.776C299.02 134.768 298.476 132.464 297.388 130.864C296.236 129.264 294.444 128.464 292.012 128.464H289.42V146.704H291.628ZM309.875 118V61.36H315.635V118H309.875ZM324.275 118V61.36H327.155V118H324.275ZM330.035 118V61.36H332.915V118H330.035ZM318.611 126.352H321.491V126.64C321.363 126.768 321.267 126.928 321.203 127.12C321.203 127.248 321.203 127.536 321.203 127.984V135.856H329.843V126.352H332.819V126.64C332.691 126.768 332.595 126.928 332.531 127.12C332.531 127.248 332.531 127.536 332.531 127.984V148.624H329.843V138.064H321.203V148.624H318.611V126.352ZM341.562 118V61.36H344.443V118H341.562ZM347.323 118V61.36H350.203V118H347.323ZM358.843 118V61.36H364.603V118H358.843ZM360.955 142.096H353.755L351.547 148.624H349.051L357.211 125.968H357.499L365.755 148.624H363.163L360.955 142.096ZM360.283 140.176L357.403 131.728L354.427 140.176H360.283ZM373.25 118V61.36H376.13V118H373.25ZM379.01 118V61.36H387.65V118H379.01ZM396.29 118V61.36H402.05V118H396.29ZM381.986 126.352H384.386L393.698 142.864V126.352H396.482V126.64C396.29 126.768 396.194 126.928 396.194 127.12C396.13 127.248 396.098 127.536 396.098 127.984V148.624H394.178L384.29 131.152V148.624H381.986V126.352ZM404.938 118V61.36H413.578V118H404.938ZM416.458 118V61.36H422.218V118H416.458ZM430.858 118V61.36H433.738V118H430.858ZM413.674 146.896L424.81 128.656H414.058V126.352H427.786V128.176L416.746 146.416H426.826C427.21 146.416 427.498 146.384 427.69 146.32C427.818 146.256 427.978 146.16 428.17 146.032H428.362V148.624H413.674V146.896ZM436.625 118V61.36H442.385V118H436.625ZM451.025 118V61.36H453.905V118H451.025ZM462.545 118V61.36H465.425V118H462.545ZM446.417 146.512H450.833V128.464H446.705V126.352H457.745V128.464H453.329V146.512H457.937V148.624H446.417V146.512ZM468.312 118V61.36H476.953V118H468.312ZM479.833 118V61.36H488.473V118H479.833ZM491.353 118V61.36H497.113V118H491.353ZM477.337 126.352H484.441C486.809 126.352 488.569 126.96 489.721 128.176C490.937 129.328 491.545 130.832 491.545 132.688C491.545 134.48 490.969 135.952 489.817 137.104C488.665 138.256 486.937 138.832 484.633 138.832H479.929V148.624H477.337V126.352ZM484.345 136.624C485.945 136.624 487.097 136.272 487.801 135.568C488.569 134.928 488.953 134 488.953 132.784C488.953 131.568 488.569 130.608 487.801 129.904C487.033 129.136 485.913 128.752 484.441 128.752H479.929V136.624H484.345ZM500 118V61.36H502.88V118H500ZM511.52 118V61.36H514.4V118H511.52ZM523.04 118V61.36H528.8V118H523.04ZM517.088 149.008C515.424 149.008 513.952 148.592 512.672 147.76C511.328 146.928 510.272 145.68 509.504 144.016C508.736 142.288 508.352 140.144 508.352 137.584C508.352 134.896 508.768 132.688 509.6 130.96C510.432 129.296 511.488 128.08 512.768 127.312C514.048 126.608 515.424 126.256 516.896 126.256C518.496 126.256 519.872 126.64 521.024 127.408C522.176 128.176 523.04 129.232 523.616 130.576L521.504 131.632L521.216 131.728L521.12 131.536V131.248C521.12 130.992 520.96 130.64 520.64 130.192C520.128 129.488 519.552 128.976 518.912 128.656C518.272 128.336 517.6 128.176 516.896 128.176C514.976 128.176 513.472 129.008 512.384 130.672C511.36 132.272 510.848 134.544 510.848 137.488C510.848 139.28 511.104 140.912 511.616 142.384C512.192 143.792 512.928 144.88 513.824 145.648C514.784 146.416 515.84 146.8 516.992 146.8C517.888 146.8 518.72 146.576 519.488 146.128C520.32 145.616 520.992 144.944 521.504 144.112L523.328 145.36C522.56 146.576 521.696 147.472 520.736 148.048C519.712 148.688 518.496 149.008 517.088 149.008ZM531.688 118V61.36H537.448V118H531.688ZM546.088 118V61.36H548.968V118H546.088ZM551.848 118V61.36H560.488V118H551.848ZM540.616 126.352H547.144C549.704 126.352 551.56 126.928 552.712 128.08C553.928 129.168 554.536 130.736 554.536 132.784C554.536 134.064 554.12 135.28 553.288 136.432C552.456 137.584 551.368 138.352 550.024 138.736L555.208 148.624H552.424L547.432 138.832H543.112V148.624H540.616V126.352ZM547.432 136.624C548.968 136.624 550.12 136.272 550.888 135.568C551.592 134.928 551.944 134 551.944 132.784C551.944 131.568 551.592 130.576 550.888 129.808C550.12 129.104 548.968 128.752 547.432 128.752H543.112V136.624H547.432ZM563.375 118V61.36H566.255V118H563.375ZM569.135 118V61.36H572.015V118H569.135ZM580.655 118V61.36H586.415V118H580.655ZM582.767 142.096H575.567L573.359 148.624H570.863L579.023 125.968H579.311L587.567 148.624H584.975L582.767 142.096ZM582.095 140.176L579.215 131.728L576.239 140.176H582.095ZM595.062 118V61.36H597.943V118H595.062ZM606.583 118V61.36H609.463V118H606.583ZM618.103 118V61.36H623.863V118H618.103ZM612.151 149.008C610.487 149.008 609.015 148.592 607.734 147.76C606.391 146.928 605.335 145.68 604.567 144.016C603.799 142.288 603.415 140.144 603.415 137.584C603.415 134.896 603.831 132.688 604.663 130.96C605.495 129.296 606.551 128.08 607.831 127.312C609.111 126.608 610.487 126.256 611.959 126.256C613.559 126.256 614.935 126.64 616.087 127.408C617.239 128.176 618.103 129.232 618.679 130.576L616.567 131.632L616.279 131.728L616.183 131.536V131.248C616.183 130.992 616.023 130.64 615.703 130.192C615.191 129.488 614.615 128.976 613.975 128.656C613.335 128.336 612.663 128.176 611.959 128.176C610.039 128.176 608.535 129.008 607.447 130.672C606.423 132.272 605.911 134.544 605.911 137.488C605.911 139.28 606.167 140.912 606.679 142.384C607.255 143.792 607.991 144.88 608.887 145.648C609.847 146.416 610.903 146.8 612.055 146.8C612.951 146.8 613.783 146.576 614.551 146.128C615.383 145.616 616.055 144.944 616.567 144.112L618.391 145.36C617.623 146.576 616.759 147.472 615.799 148.048C614.775 148.688 613.559 149.008 612.151 149.008ZM626.75 118V61.36H629.63V118H626.75ZM632.51 118V61.36H638.27V118H632.51ZM646.91 118V61.36H655.55V118H646.91ZM639.614 137.488L637.79 139.408V148.624H635.198V126.352H638.174V126.64C638.046 126.768 637.95 126.928 637.886 127.12C637.822 127.248 637.79 127.536 637.79 127.984V136.624L647.102 126.256C647.678 126.32 648.286 126.352 648.926 126.352H649.886L641.438 135.952L650.462 148.624L647.294 148.72L639.614 137.488ZM658.438 118V61.36H661.318V118H658.438ZM669.958 118V61.36H675.718V118H669.958ZM678.598 118V61.36H681.478V118H678.598ZM667.462 126.352H681.094V128.56H669.766V135.856H679.174V138.16H669.766V146.416H680.998V148.624H667.462V126.352ZM690.125 118V61.36H695.885V118H690.125ZM704.525 118V61.36H707.405V118H704.525ZM710.285 118V61.36H718.925V118H710.285ZM699.053 126.352H705.581C708.141 126.352 709.997 126.928 711.149 128.08C712.365 129.168 712.973 130.736 712.973 132.784C712.973 134.064 712.557 135.28 711.725 136.432C710.893 137.584 709.805 138.352 708.461 138.736L713.645 148.624H710.861L705.869 138.832H701.549V148.624H699.053V126.352ZM705.869 136.624C707.405 136.624 708.557 136.272 709.325 135.568C710.029 134.928 710.381 134 710.381 132.784C710.381 131.568 710.029 130.576 709.325 129.808C708.557 129.104 707.405 128.752 705.869 128.752H701.549V136.624H705.869ZM721.812 118V61.36H724.693V118H721.812ZM730.453 118V61.36H736.213V118H730.453ZM739.093 118V61.36H747.733V118H739.093ZM731.221 136.24H744.085V138.64H731.221V136.24Z" fill="white"/>
</svg>
